PathFileType	4	(X/Y/Z)	C:/Users/beibeiliu/ov580/test_trc\sequence.5_training_dense_right.trc
DataRate	CameraRate	NumFrames	NumMarkers	Units	OrigDataRate	OrigDataStartFrame	OrigNumFrames
120	120	25	19	mm	120	67	100
Frame#	Time	ThumbCMC			ThumbMCP			ThumbIP			ThumbTip			IndexMCP			IndexPIP			IndexTip			MiddleMCP			MiddlePIP			MiddleTip			RingMCP			RingPIP			RingTip			PinkyMCP			PinkyPIP			PinkyTip			BackHand1			BackHand2			BackHand3	
		X0	Y0	Z0	X1	Y1	Z1	X2	Y2	Z2	X3	Y3	Z3	X4	Y4	Z4	X5	Y5	Z5	X6	Y6	Z6	X7	Y7	Z7	X8	Y8	Z8	X9	Y9	Z9	X10	Y10	Z10	X11	Y11	Z11	X12	Y12	Z12	X13	Y13	Z13	X14	Y14	Z14	X15	Y15	Z15	X16	Y16	Z16	X17	Y17	Z17	X18	Y18	Z18	
66	0.55	153.254	38.6349	80.4986	153.361	46.6978	50.79	149.997	44.1893	24.0412	135.414	44.0785	8.04841	138.646	-4.4707	30.9427	140.966	-9.05871	9.16796	139.315	-5.04378	-19.12	119.649	11.5971	23.7732	122.037	38.6488	9.74791	127.226	56.1799	38.8248	104.312	25.1361	24.9998	113.679	51.9301	25.8599	121.972	57.209	49.0377	89.5881	28.4859	35.8832	100.795	47.7535	30.5849	112.735	53.5736	55.6565	100.453	9.21743	75.9045	105.523	22.4145	101.949	130.415	12.7402	89.6032	
67	0.558333	155.317	44.3036	80.1883	153.223	49.6383	48.8074	145.891	44.3757	25.1679	135.962	44.261	6.66721	144.262	-4.58642	34.6573	146.339	-11.4294	11.0503	141.513	-12.7891	-13.4657	126.554	11.9911	21.7684	121.527	36.055	10.5132	124.071	55.5747	36.2186	105.613	18.5974	30.8499	111.757	45.4437	23.965	118.777	56.7838	48.4388	89.4405	23.4458	38.5034	104.197	45.7093	32.5253	112.496	51.9119	53.8095	108.134	9.73272	80.4356	107.936	22.7286	106.496	138.144	13.9332	88.8219	
68	0.566667	153.853	51.4805	80.4542	151.865	55.4473	51.2522	149.773	52.002	23.7807	137.443	45.5893	5.90576	150.526	3.27022	36.0694	149.157	-3.60593	12.1937	149.626	-0.282379	-13.6308	127.419	12.4058	21.9183	121.944	36.6606	11.9058	123.017	56.0328	38.5621	108.424	18.2312	30.1924	112.714	44.5806	24.9554	119.855	56.9942	51.6232	95.321	20.0065	38.5001	101.957	39.7022	31.4462	114.7	49.731	55.2699	116.158	10.0718	81.5618	113.611	21.531	103.986	138.629	17.8059	89.5919	
69	0.575	151.784	52.2752	80.3897	152.118	59.0635	52.5881	149.968	52.3967	25.3645	140.674	48.4123	9.47857	160.623	12.6772	29.6026	157.575	13.1102	7.13435	152.928	20.7666	-15.1324	136.966	15.0859	24.7025	128.032	39.9013	12.2496	121.845	55.2267	41.5902	116.21	16.9041	32.2295	115.607	43.0105	25.5754	115.1	55.9108	52.6542	104.143	18.1036	37.8772	100.546	39.595	33.2232	111.072	50.4683	54.1135	121.278	7.57759	80.0769	122.663	23.6267	107.291	146.906	25.7858	92.8349	
70	0.583333	153.073	55.2886	83.4437	153.214	58.8118	51.6098	153.323	55.1971	26.1249	143.51	46.1867	8.25111	163.086	14.2411	29.1832	162.666	18.3042	7.09557	156.154	29.5779	-17.3723	139.514	12.4941	27.2606	132.796	36.8488	12.4585	123.36	53.9086	39.5473	124.151	15.5489	33.5919	118.441	40.5425	25.9174	121.43	54.1608	51.5489	109.877	13.7193	38.673	106.938	38.0877	35.6637	116.213	47.9151	53.4017	127.075	6.77008	80.1158	126.155	19.8393	104.507	151.437	22.4002	93.2988	
71	0.591667	152.235	59.1193	81.1553	151.683	66.4768	50.5573	146.722	54.9845	26.7921	138.392	45.7454	6.01576	170.85	19.363	33.0027	165.866	18.3015	7.11033	162.335	26.5543	-13.3959	147.615	16.7232	25.4912	132.605	35.4442	12.809	125.017	54.6828	41.7442	128.184	14.0735	33.3223	114.801	35.2488	28.6271	118.487	51.2362	55.334	113.788	8.44707	43.9051	110.278	30.2909	35.0257	114.508	43.292	54.5215	134.791	6.73284	85.4797	130.497	23.4555	110.047	153.401	31.1923	95.0212	
72	0.6	142.787	68.5736	81.031	137.673	70.1376	46.0297	134.522	60.4004	24.1458	126.792	47.4816	7.00752	171.751	32.1313	33.6422	169.27	28.413	3.92665	158.253	30.7377	-17.6518	149.704	22.4636	25.5315	125.329	33.9462	14.1586	115.772	50.8772	38.1543	135.071	14.5576	34.8825	115.585	35.1262	29.6954	110.684	45.2295	55.6186	124.67	6.17696	45.5438	110.742	27.6397	39.4352	111.278	40.2262	61.8212	146.436	13.1065	84.2927	139.519	23.2314	105.57	159.508	41.6996	88.2868	
73	0.608333	129.85	74.5596	74.6894	115.429	77.0868	44.8892	113.815	62.9407	24.6773	111.268	48.9228	7.86185	161.963	53.664	23.5709	155.981	51.5667	-1.8814	143.152	45.7648	-20.7196	146.872	35.4838	21.1157	120.933	34.687	12.2822	105.408	45.8075	39.078	137.927	22.3179	32.5268	108.395	28.0137	31.1055	105.862	40.3489	56.5503	131.665	8.54193	44.2513	108.474	19.0799	41.8333	108.441	36.4563	63.7582	154.623	28.7397	76.2234	146.207	36.5866	103.755	153.613	58.7464	85.1147	
74	0.616667	116.502	76.1908	74.9302	102.412	70.9623	45.6863	99.7118	60.5762	26.7029	100.329	44.4641	10.0627	142.409	65.0824	16.9342	130.838	57.5386	-6.7237	116.164	45.5397	-19.1097	136.855	43.696	16.872	110.205	32.7749	14.0682	97.6523	37.2637	41.6285	135.845	27.4889	29.3288	104.724	25.8932	34.9966	102.029	35.4265	56.5826	135.413	14.0444	40.9857	108.838	18.7958	43.5443	109.546	34.94	63.5118	157.087	38.265	69.7417	149.354	46.3699	99.3657	148.927	68.7491	76.3343	
75	0.625	109.649	76.819	73.3911	92.4145	70.3988	48.2411	89.9907	59.7741	27.2573	92.2282	43.5594	5.48872	130.286	68.6752	12.3934	118.237	59.3353	-6.5902	101.705	48.789	-20.2975	132.042	50.6944	15.9913	103.772	35.0066	12.3201	95.0385	37.2785	45.0471	129.32	28.8738	24.491	105.815	25.993	29.9178	102.274	34.2481	57.5228	136.764	18.2821	38.5166	111.879	15.6488	40.9185	107.622	31.7649	64.3459	156.106	45.6598	65.8463	149.031	51.5017	94.6539	143.36	76.4105	73.3976	
76	0.633333	104.339	77.1799	75.0027	88.2659	68.5311	44.5115	85.8769	57.4982	26.3469	84.5031	43.6548	6.42731	128.866	73.8752	15.1343	115.788	68.966	-8.29609	101.7	50.9368	-26.0155	126.642	53.9806	12.9526	101.944	35.2278	11.0348	92.0587	36.9173	40.3726	128.654	36.571	24.1986	101.684	26.4832	31.722	99.8792	34.2967	56.4558	134.279	24.1786	35.6829	110.554	19.3312	39.0511	105.957	35.9839	62.2092	150.587	52.6532	67.4808	150.758	54.4813	90.7066	137.642	77.4155	77.5412	
77	0.641667	97.2335	79.2313	74.383	82.6075	66.8561	49.8373	78.794	58.6901	27.7076	79.5422	43.8061	7.61899	119.598	86.7357	11.0258	112.587	78.8394	-10.3311	103.375	64.912	-29.252	120.771	59.4771	11.5066	97.5157	43.5199	8.74597	91.7771	37.0446	40.9476	123.604	38.1309	19.5081	100.732	32.7652	27.5422	95.5756	37.1915	53.3012	132.989	27.0034	33.0897	108.795	22.1185	40.0958	107.164	35.8401	63.901	146.877	59.2707	62.0209	145.748	58.6957	87.9581	132.521	79.9962	74.1782	
78	0.65	89.6617	78.9355	77.6466	73.5242	65.488	53.277	71.3446	56.3644	24.7911	79.1511	42.7268	8.62469	109.134	90.196	16.4511	99.6623	87.3602	-9.18117	91.8406	71.6539	-28.4106	114.482	68.0158	13.4215	96.2841	42.8153	8.36473	89.3322	37.7782	39.7083	120.686	46.1966	19.5251	99.5933	30.3952	28.9278	97.3066	37.2353	55.1441	128.666	34.6642	29.0484	110.346	24.9227	37.1381	103.773	38.1435	59.9652	142.589	70.5832	61.1183	140.313	71.525	89.5474	123.884	87.1557	72.8541	
79	0.658333	83.5198	76.5097	77.546	68.7162	61.4352	54.0243	68.7613	51.6957	35.1964	74.7142	41.6959	12.9056	90.0471	90.2931	12.8192	84.7772	78.1356	-9.25327	71.5716	62.48	-21.973	102.899	71.4353	12.6581	90.3545	44.2354	8.8888	87.7146	39.0677	44.6362	115.833	55.7921	20.3121	97.8418	33.767	28.5696	99.0616	39.7598	56.9314	128.823	42.155	26.9231	108.742	32.9218	35.5806	106.444	40.695	62.6949	135.032	80.4026	60.1166	134.365	81.8209	84.7894	112.198	92.4624	74.2258	
80	0.666667	79.2654	75.9065	80.3611	66.6163	56.5322	54.5328	65.5487	46.5689	35.052	67.548	34.7636	14.4534	81.4886	83.0823	12.896	71.439	67.2415	-4.06491	64.5314	45.4277	-13.8129	96.7058	68.6356	11.7491	89.8152	39.9599	11.2285	87.0205	36.664	43.7584	112.071	58.1261	19.0258	99.0764	35.6694	28.0675	97.9343	41.0477	56.6873	124.993	50.8866	26.777	110.887	33.493	39.5209	109.151	47.4736	62.9641	126.158	88.2847	57.7189	128.909	88.7758	82.9398	103.576	95.9208	73.1594	
81	0.675	74.9689	76.6439	79.3351	64.2908	55.8553	57.0679	61.3012	45.6015	36.4469	69.3203	36.6371	17.6663	70.0772	83.0366	13.8264	63.3933	65.7845	-2.86886	57.3544	43.4648	-14.6279	91.461	67.9753	8.60069	86.0443	39.4452	14.9918	84.5928	39.1231	45.3629	107.247	58.1731	17.1473	94.5737	36.6946	31.0654	99.5311	43.464	58.4881	120.695	52.9646	25.7471	109.924	36.4905	39.8175	104.766	49.5008	61.8858	121.059	92.177	56.8499	127.217	94.6189	81.5496	100.86	99.4454	69.727	
82	0.683333	67.3952	80.5114	77.34	59.125	59.6095	55.9141	59.21	49.4745	33.839	65.091	38.3866	15.3578	67.1307	89.1723	10.9951	58.67	77.7727	-5.77484	53.7696	60.0145	-19.2146	83.6544	74.046	10.2476	75.8423	46.7431	10.4986	81.3909	42.9585	46.9392	99.5401	61.8267	16.1594	89.8064	41.7551	32.2324	93.2026	47.8452	55.7355	115.86	60.7732	24.5894	105.524	41.3664	38.9168	100.046	53.5469	60.0217	116.124	97.2645	49.5399	119.048	101.42	76.5809	92.6714	103.966	65.9743	
83	0.691667	65.9892	82.9492	77.638	52.5152	60.0823	54.7028	51.9257	50.0781	35.5145	59.1609	39.1113	14.4723	60.1674	95.2661	12.9856	47.5794	83.8642	-8.41307	39.5257	67.4767	-24.4229	78.5739	76.8174	8.98577	72.5951	47.7943	11.0675	76.3224	43.3022	43.3979	92.4435	68.3794	16.8824	87.6938	44.5518	27.8908	86.5236	53.192	57.0368	107.382	60.8604	22.7834	97.5244	46.3118	39.0443	95.2786	57.1363	59.124	111.362	101.419	48.871	116.72	102.652	78.2115	87.2237	108.758	65.8431	
84	0.7	60.0624	79.9109	77.7471	50.643	58.47	55.5031	46.9496	45.1508	33.8883	55.5897	36.3457	17.4999	46.056	90.5657	13.4456	41.7972	76.7341	-7.23943	34.5293	59.2184	-22.4477	69.1083	74.4179	11.1785	67.0994	42.0843	14.0155	75.4591	41.2032	45.7375	83.9323	63.8633	14.7305	85.7285	40.6435	28.8859	81.8652	51.0086	55.0414	104.832	65.3048	21.682	97.5117	43.218	35.4147	90.3385	56.0239	56.4853	97.5517	101.681	46.7748	106.973	104.212	73.7527	80.0219	105.578	63.8547	
85	0.708333	53.7168	73.7212	76.9955	45.0894	49.8164	58.3475	46.3749	39.1645	36.477	49.8106	26.543	18.5808	41.4092	77.9718	15.978	35.8328	61.0246	-3.36343	33.5291	37.8539	-15.7895	59.9755	64.2102	9.3997	64.8668	37.4245	11.991	70.8358	37.0187	47.8302	83.3738	58.0061	14.6484	78.6194	37.3712	28.0787	82.7926	45.6135	56.5828	97.4168	58.5502	21.6356	92.8863	40.503	35.1101	85.5217	55.4813	57.4731	89.8374	98.1521	49.4688	98.5891	101.093	76.6212	72.1027	101.337	67.9779	
86	0.716667	45.5093	66.6639	78.6349	38.7245	41.2916	61.9722	37.8044	29.6729	37.143	44.1665	18.8044	20.7445	33.726	67.0293	14.553	32.2107	50.1684	1.22748	34.5785	22.7891	-11.2997	56.0195	59.7498	10.3435	60.5335	29.5227	15.3606	64.7587	33.966	48.7381	76.4451	51.519	15.0071	72.9169	31.4313	32.1905	72.3868	43.1331	57.7816	91.012	55.7154	23.1533	84.5604	36.6436	37.159	79.1669	47.8792	58.3852	81.8038	92.5332	47.6531	89.5894	100.701	74.8215	60.5812	96.7102	65.2466	
87	0.725	40.1092	65.3335	81.7548	31.7117	41.1609	58.1858	30.3681	27.4446	37.2772	40.225	18.7495	16.9173	28.0688	68.6421	14.7313	23.7496	52.2838	0.0834907	19.2442	29.6285	-11.3985	46.7106	56.6496	10.2966	48.7026	29.3948	16.4409	59.0909	31.5388	46.8597	66.6842	51.2766	15.8488	67.8406	29.6895	32.3793	66.4186	39.7022	57.2642	85.5795	52.6911	23.0848	78.0171	35.7301	37.8118	75.5056	49.0399	60.9864	77.3202	92.7472	49.4949	82.149	95.2191	74.1735	55.6199	93.4342	69.2369	
88	0.733333	33.1701	66.1562	83.1564	21.3937	40.9276	60.8971	23.2101	31.6362	39.5431	33.9823	23.807	18.7242	20.53	75.7992	16.6484	13.66	60.2126	-4.94051	7.06712	38.1048	-16.7683	41.3664	60.3192	9.50261	41.74	32.7646	13.9946	48.1073	33.71	47.9418	54.8166	52.6108	16.6182	55.6253	31.6262	33.127	61.1984	42.9185	59.3615	73.7571	55.7519	22.1458	69.7677	35.485	38.3929	66.4444	50.934	61.4248	66.6773	90.8895	47.4928	73.7113	95.2194	73.8088	47.3007	95.0651	68.8195	
89	0.741667	25.3107	67.804	78.1131	16.3398	43.2235	60.9876	14.37	31.5347	37.7533	24.9078	24.3187	21.0434	10.7533	78.0424	18.1084	1.44825	64.807	0.119228	1.73708	41.1913	-17.6224	33.0553	63.7929	11.7415	32.2097	33.4796	16.4414	39.6627	36.7996	48.2077	47.4353	55.0001	15.6666	50.3367	34.1291	29.1683	50.1639	41.9438	56.3098	68.3554	55.7257	20.7082	60.9892	37.7689	33.8227	59.6346	46.3281	58.6859	63.8755	93.3389	49.5244	70.9863	95.7609	72.9801	38.4756	97.2873	67.3091	
90	0.75	20.0284	65.827	80.9607	10.4051	40.9891	59.0446	9.7996	29.6076	35.9298	19.0365	19.2662	17.7938	1.99504	72.3599	17.1687	1.38402	55.3597	0.0482644	-0.411833	30.3371	-7.77568	27.795	63.206	11.7415	27.5993	32.2358	15.4954	37.4732	30.8451	45.1322	46.2343	56.1859	14.9216	45.2319	32.0162	32.1965	48.9908	41.98	57.4332	62.3901	57.2292	20.9185	60.2634	36.2839	34.9006	55.1323	45.555	56.0605	53.7714	92.9	46.3014	62.1288	96.3188	77.3902	31.6315	96.631	67.4046	
